<svg width="16" height="16" version="1.1" viewBox="0 0 4.2333 4.2333" xmlns="http://www.w3.org/2000/svg">
<g transform="translate(-37.581 9.478)">
<path d="m38.11-8.9488v2.1168h0.12845c1.096 0 1.9883-0.89226 1.9883-1.9883v-0.12849l-0.12891-4.172e-4zm0.26458 0.26458h1.5875c-0.07232 0.83474-0.75277 1.5151-1.5875 1.5875z" color="#000000" color-rendering="auto" dominant-baseline="auto" fill="#a5b7f3" image-rendering="auto" shape-rendering="auto" solid-color="#000000" stop-color="#000000" style="font-feature-settings:normal;font-variant-alternates:normal;font-variant-caps:normal;font-variant-east-asian:normal;font-variant-ligatures:normal;font-variant-numeric:normal;font-variant-position:normal;font-variation-settings:normal;inline-size:0;isolation:auto;mix-blend-mode:normal;shape-margin:0;shape-padding:0;text-decoration-color:#000000;text-decoration-line:none;text-decoration-style:solid;text-indent:0;text-orientation:mixed;text-transform:none;white-space:normal"/>
<path transform="matrix(.26458 0 0 .26458 37.581 -9.478)" d="m11 1v3h2.1777c0.9532-0.01217 1.8223-0.67934 1.8223-1.5 0-0.82066-0.86907-1.4877-1.8223-1.5zm1 1h1.0879c0.4766 0.0040974 0.91211 0.22645 0.91211 0.5 0 0.27355-0.43549 0.49596-0.91211 0.5h-1.0879z" fill="#a5b7f3"/>
<path d="m38.242-8.8165 1.9844 1.9844" fill="none" stroke="#a5b7f3" stroke-width=".26458"/>
<path d="m38.639-6.5676h-0.79375v0.57619c0.0032 0.2522 0.17974 0.48214 0.39688 0.48214 0.21713 0 0.39362-0.22994 0.39688-0.48214zm-0.26458 0.26458v0.28784c-0.0011 0.1261-0.05991 0.24133-0.13229 0.24133-0.07238 0-0.13122-0.11522-0.13229-0.24133v-0.28784z" fill="#a5b7f3"/>
<path d="m40.7-8.1551-0.30376 0.73333 0.53233 0.2205c0.23424 0.093538 0.51422 0.018448 0.59732-0.18216 0.08309-0.2006-0.06181-0.45166-0.29356-0.55117zm0.14319 0.34569 0.26593 0.11015c0.11609 0.049255 0.20003 0.14771 0.17233 0.21457-0.0277 0.06687-0.15667 0.077136-0.27358 0.029869l-0.26593-0.11015z" fill="#a5b7f3"/>
<path d="m39.637-6.6625-0.73333 0.30375 0.2205 0.53233c0.09947 0.23178 0.35056 0.37666 0.55117 0.29356 0.2006-0.083092 0.27566-0.36307 0.18216-0.59732zm-0.14319 0.34569 0.11015 0.26593c0.04724 0.11692 0.03699 0.24589-0.02987 0.27358-0.06687 0.027697-0.16533-0.056235-0.21458-0.17233l-0.11015-0.26593z" fill="#a5b7f3"/>
<path d="m40.721-6.899-0.56127 0.56127 0.40743 0.40743c0.18061 0.17606 0.46802 0.21383 0.62156 0.060292 0.15353-0.15354 0.11574-0.44092-0.06029-0.62156zm0 0.37418 0.20353 0.20353c0.0884 0.08993 0.12828 0.21301 0.0771 0.26419-0.05118 0.051178-0.17426 0.011312-0.26419-0.077101l-0.20353-0.20353z" fill="#a5b7f3"/>
</g>
</svg>
